<svg width="18" height="18" viewBox="0 0 18 18" fill="none" xmlns="http://www.w3.org/2000/svg">
<path d="M15.375 16.5V17.0625C15.6857 17.0625 15.9375 16.8107 15.9375 16.5H15.375ZM2.625 16.5H2.0625C2.0625 16.8107 2.31434 17.0625 2.625 17.0625V16.5ZM15.375 1.5H15.9375C15.9375 1.18934 15.6857 0.9375 15.375 0.9375V1.5ZM7.875 1.5V0.9375H7.64201L7.47725 1.10225L7.875 1.5ZM2.625 6.75L2.22725 6.35225L2.0625 6.517V6.75H2.625ZM7.875 6.75V7.3125H8.4375V6.75H7.875ZM15.375 15.9375H2.625V17.0625H15.375V15.9375ZM14.8125 1.5V16.5H15.9375V1.5H14.8125ZM15.375 0.9375H7.875V2.0625H15.375V0.9375ZM2.0625 6.75V16.5H3.1875V6.75H2.0625ZM7.47725 1.10225L2.22725 6.35225L3.02275 7.14775L8.27275 1.89775L7.47725 1.10225ZM7.3125 1.5V6.75H8.4375V1.5H7.3125ZM7.875 6.1875H2.625V7.3125H7.875V6.1875Z" fill="black"/>
<path d="M12 12.75H6" stroke="black" stroke-width="1.125" stroke-linejoin="round"/>
<path d="M12 9.75H9" stroke="black" stroke-width="1.125" stroke-linejoin="round"/>
</svg>
