<svg width="18" height="18" viewBox="0 0 18 18" fill="none" xmlns="http://www.w3.org/2000/svg">
<g clip-path="url(#clip0_45_534)">
<path d="M5.9998 16.5V17.0625H6.23279L6.39754 16.8977L5.9998 16.5ZM16.4998 6L16.8975 6.39775C17.003 6.29226 17.0623 6.14918 17.0623 6C17.0623 5.85081 17.003 5.70774 16.8975 5.60225L16.4998 6ZM1.50049 12L1.10273 11.6023L0.937988 11.767V12H1.50049ZM11.9998 1.5L12.3975 1.10225C12.2921 0.996761 12.149 0.937498 11.9998 0.9375C11.8506 0.937502 11.7075 0.996771 11.602 1.10227L11.9998 1.5ZM1.50049 16.5H0.937988V17.0625H1.50049V16.5ZM6.39754 16.8977L16.8975 6.39775L16.102 5.60225L5.60205 16.1023L6.39754 16.8977ZM1.89825 12.3977L12.3976 1.89773L11.602 1.10227L1.10273 11.6023L1.89825 12.3977ZM11.602 1.89775L16.102 6.39775L16.8975 5.60225L12.3975 1.10225L11.602 1.89775ZM5.9998 15.9375H1.50049V17.0625H5.9998V15.9375ZM2.06299 16.5V12H0.937988V16.5H2.06299Z" fill="black"/>
<path d="M9.00049 4.5L13.5005 9" stroke="black" stroke-width="1.125" stroke-linejoin="round"/>
<path d="M9.75 16.5L16.5 16.5" stroke="black" stroke-width="1.125" stroke-linejoin="round"/>
</g>
<defs>
<clipPath id="clip0_45_534">
<rect width="18" height="18" fill="white"/>
</clipPath>
</defs>
</svg>
