<svg width="18" height="18" viewBox="0 0 18 18" fill="none" xmlns="http://www.w3.org/2000/svg">
<g clip-path="url(#clip0_45_530)">
<path d="M2.42611 11.5559L1.94213 11.8425L1.94213 11.8425L2.42611 11.5559ZM14.625 13.125L14.4055 12.6071L14.1024 12.7355L14.0659 13.0628L14.625 13.125ZM16.5 12.3305L16.7195 12.8484C16.8625 12.7878 16.9741 12.6708 17.0278 12.525C17.0815 12.3792 17.0726 12.2177 17.003 12.0788L16.5 12.3305ZM14.8333 9H14.2708V9.13289L14.3303 9.25173L14.8333 9ZM10.6262 16.4956L10.6398 15.9333H10.6398L10.6262 16.4956ZM12.9117 16.4987L12.9127 17.0612H12.9127L12.9117 16.4987ZM14.398 15.1654L14.957 15.2276L14.398 15.1654ZM7.13942 4.83013L6.82474 5.29638H6.82474L7.13942 4.83013ZM10.3734 5.45718L9.81139 5.43356C9.80353 5.62051 9.88915 5.79913 10.0398 5.91009C10.1905 6.02106 10.3864 6.04984 10.5627 5.98688L10.3734 5.45718ZM4.77993 7.07458L4.86333 7.63086C5.04809 7.60316 5.20703 7.48554 5.28753 7.31695C5.36803 7.14836 5.35958 6.95081 5.26497 6.78972L4.77993 7.07458ZM15.3958 8.16494C15.3958 4.1732 12.1591 0.9375 8.16667 0.9375V2.0625C11.538 2.0625 14.2708 4.79479 14.2708 8.16494H15.3958ZM8.16667 0.9375C4.17425 0.9375 0.9375 4.1732 0.9375 8.16494H2.0625C2.0625 4.79479 4.79529 2.0625 8.16667 2.0625V0.9375ZM0.9375 8.16494C0.9375 9.50674 1.30377 10.7647 1.94213 11.8425L2.91009 11.2692C2.37169 10.3602 2.0625 9.29952 2.0625 8.16494H0.9375ZM2.60417 13.8338V16.4961H3.72917V13.8338H2.60417ZM14.8445 13.6429L16.7195 12.8484L16.2805 11.8126L14.4055 12.6071L14.8445 13.6429ZM17.003 12.0788L15.3364 8.74827L14.3303 9.25173L15.997 12.5822L17.003 12.0788ZM14.2708 8.16494V9H15.3958V8.16494H14.2708ZM1.94213 11.8425C2.18795 12.2576 2.3471 12.547 2.45071 12.8372C2.5498 13.1147 2.60417 13.4119 2.60417 13.8338H3.72917C3.72917 13.3022 3.65867 12.8747 3.5102 12.4589C3.36624 12.0557 3.15511 11.6829 2.91009 11.2692L1.94213 11.8425ZM8.4375 14.7783C8.4375 15.967 9.34824 17.0272 10.6125 17.0579L10.6398 15.9333C10.0389 15.9187 9.5625 15.4106 9.5625 14.7783H8.4375ZM10.6125 17.0579C10.8441 17.0636 11.9805 17.0628 12.9127 17.0612L12.9108 15.9362C11.966 15.9378 10.8522 15.9384 10.6398 15.9333L10.6125 17.0579ZM14.0659 13.0628L13.8389 15.1032L14.957 15.2276L15.1841 13.1872L14.0659 13.0628ZM12.9127 17.0612C13.9619 17.0594 14.8411 16.2695 14.957 15.2276L13.8389 15.1032C13.7862 15.5771 13.3866 15.9354 12.9108 15.9362L12.9127 17.0612ZM8.4407 6.22297C8.4407 5.44868 8.04885 4.7653 7.45411 4.36389L6.82474 5.29638C7.12103 5.49635 7.3157 5.83616 7.3157 6.22297H8.4407ZM10.791 4.82263C10.5791 4.82263 10.3746 4.85944 10.1841 4.92748L10.5627 5.98688C10.6334 5.96161 10.71 5.94763 10.791 5.94763V4.82263ZM9.58225 7.99652C9.90207 8.28469 10.3265 8.46115 10.791 8.46115V7.33615C10.6161 7.33615 10.4572 7.27059 10.3353 7.16075L9.58225 7.99652ZM4.96537 10.1368C5.57992 10.1368 6.12161 9.8289 6.44768 9.36275L5.52582 8.71792C5.40005 8.89773 5.19524 9.01182 4.96537 9.01182V10.1368ZM9.33461 9.01182C8.67651 9.01182 8.15147 9.30014 7.80435 9.74275C7.46844 10.1711 7.3157 10.7191 7.3157 11.25H8.4407C8.4407 10.9215 8.53691 10.6317 8.68958 10.437C8.83105 10.2566 9.03422 10.1368 9.33461 10.1368V9.01182ZM10.2285 7.89865C10.2285 8.22713 10.1323 8.51697 9.97964 8.71164C9.83817 8.89202 9.635 9.01182 9.33461 9.01182V10.1368C9.99271 10.1368 10.5178 9.8485 10.8649 9.4059C11.2008 8.97759 11.3535 8.42959 11.3535 7.89865H10.2285ZM7.45411 4.36389C6.497 3.71791 5.39959 3.99795 4.72494 4.62703C4.04541 5.26066 3.69548 6.33881 4.29489 7.35944L5.26497 6.78972C4.98358 6.31059 5.11896 5.79783 5.49216 5.44983C5.87024 5.09728 6.39299 5.00497 6.82474 5.29638L7.45411 4.36389ZM10.9354 5.4808C10.9887 4.21205 10.0808 3.41408 9.12106 3.23043C8.16299 3.04709 7.02408 3.452 6.60826 4.645L7.67059 5.01527C7.86652 4.45314 8.38396 4.23479 8.90962 4.33538C9.43364 4.43565 9.83681 4.82877 9.81139 5.43356L10.9354 5.4808ZM10.791 8.46115C11.3544 8.46115 11.8143 8.23512 12.1253 7.87147C12.426 7.51975 12.5625 7.07018 12.5625 6.64189C12.5625 6.2136 12.426 5.76402 12.1253 5.4123C11.8143 5.04866 11.3544 4.82263 10.791 4.82263V5.94763C11.0336 5.94763 11.1782 6.03579 11.2702 6.14343C11.3725 6.263 11.4375 6.4418 11.4375 6.64189C11.4375 6.84198 11.3725 7.02078 11.2702 7.14034C11.1782 7.24798 11.0336 7.33615 10.791 7.33615V8.46115ZM4.69653 6.5183C3.59944 6.68277 3.1339 7.63077 3.19265 8.44789C3.25155 9.2672 3.8503 10.1368 4.96537 10.1368V9.01182C4.57482 9.01182 4.34172 8.74239 4.31475 8.36722C4.28762 7.98988 4.48219 7.688 4.86333 7.63086L4.69653 6.5183Z" fill="black"/>
</g>
<defs>
<clipPath id="clip0_45_530">
<rect width="18" height="18" fill="white"/>
</clipPath>
</defs>
</svg>
