<svg width="18" height="18" viewBox="0 0 18 18" fill="none" xmlns="http://www.w3.org/2000/svg">
<g clip-path="url(#clip0_45_524)">
<path d="M6 9.375H12M6 5.625H9" stroke="black" stroke-width="1.125" stroke-linejoin="round"/>
<path d="M1.5 1.5L1.5 0.937503L0.9375 0.937503V1.5H1.5ZM16.5 1.5H17.0625V0.9375L16.5 0.9375V1.5ZM16.5 13.5V14.0625H17.0625V13.5H16.5ZM1.5 13.5H0.9375V14.0625H1.5V13.5ZM4.5 16.5H3.9375C3.9375 16.7162 4.06144 16.9133 4.25633 17.007C4.45122 17.1006 4.68255 17.0743 4.85139 16.9392L4.5 16.5ZM4.5 13.5H5.0625V12.9375H4.5V13.5ZM8.25 13.5L8.25 12.9375H8.05269L7.89861 13.0608L8.25 13.5ZM1.5 2.0625L16.5 2.0625V0.9375L1.5 0.937503L1.5 2.0625ZM15.9375 1.5V13.5H17.0625V1.5H15.9375ZM0.9375 1.5V13.5H2.0625V1.5H0.9375ZM1.5 14.0625H4.5V12.9375H1.5V14.0625ZM5.0625 16.5V13.5H3.9375V16.5H5.0625ZM8.25 14.0625L16.5 14.0625V12.9375L8.25 12.9375L8.25 14.0625ZM4.85139 16.9392L8.60139 13.9392L7.89861 13.0608L4.14861 16.0608L4.85139 16.9392Z" fill="black"/>
</g>
<defs>
<clipPath id="clip0_45_524">
<rect width="18" height="18" fill="white"/>
</clipPath>
</defs>
</svg>
